{"title":"The Bravados  (Western 1958)  Gregory Peck, Joan Collins &amp; S","uid":9238808,"size":443823461,"categoryP":"video","categoryS":"movies","magnet":"?xt=urn:btih:9afdb57a4b4b8b2e58618dceaceed24e40be6872&amp;dn=The+Bravados++%28Western+1958%29++Gregory+Peck%2C+Joan+Collins+%26amp%3B+S&amp;tr=udp%3A%2F%2Ftracker.openbittorrent.com%3A80&amp;tr=udp%3A%2F%2Fopen.demonii.com%3A1337&amp;tr=udp%3A%2F%2Ftracker.coppersurfer.tk%3A6969&amp;tr=udp%3A%2F%2Fexodus.desync.com%3A6969","seeders":4,"leechers":1,"uploader":"BurtonW","files":1,"time":1385227979,"description":"Very good quality film!\n\nEnglish subtitles.\n\n\nStoryline\n\nJim Douglas has been relentlessly pursuing the four outlaws who murdered his wife, but finds them in jail about to be hanged. While he waits to witness their execution, they escape; and the townspeople enlist Douglas' aid to recapture them.\n\n\nTechnical info:\n\n\nGeneral:\n\nComplete name                  : The Bravados  (Western 1958)  Gregory Peck, Joan Collins &amp; Stephen Boyd.mp4\nFormat                         : MPEG-4\nFormat profile                 : Base Media / Version 2\nCodec ID                       : mp42\nFile size                      : 423 MiB\nDuration                       : 1h 33mn\nOverall bit rate mode          : Variable\nOverall bit rate               : 631 Kbps\nEncoded date                   : UTC 2013-09-14 21:19:24\nTagged date                    : UTC 2013-09-14 22:38:10\n\nVideo:\n\nID                             : 1\nFormat                         : AVC\nFormat/Info                    : Advanced Video Codec\nFormat profile                 : &lt;a class=&quot;__cf_email__&quot; href=&quot;/cdn-cgi/l/email-protection&quot; data-cfemail=&quot;7538141c1b3539415b45&quot;&gt;[email&amp;#160;protected]&lt;/a&gt;&lt;script cf-hash='f9e31' type=&quot;text/javascript&quot;&gt;\n/* &lt;![CDATA[ */!function(){try{var t=&quot;currentScript&quot;in document?document.currentScript:function(){for(var t=document.getElementsByTagName(&quot;script&quot;),e=t.length;e--;)if(t[e].getAttribute(&quot;cf-hash&quot;))return t[e]}();if(t&amp;&amp;t.previousSibling){var e,r,n,i,c=t.previousSibling,a=c.getAttribute(&quot;data-cfemail&quot;);if(a){for(e=&quot;&quot;,r=parseInt(a.substr(0,2),16),n=2;a.length-n;n+=2)i=parseInt(a.substr(n,2),16)^r,e+=String.fromCharCode(i);e=document.createTextNode(e),c.parentNode.replaceChild(e,c)}}}catch(u){}}();/* ]]&gt; */&lt;/script&gt;\nFormat settings, CABAC         : Yes\nFormat settings, ReFrames      : 4 frames\nCodec ID                       : avc1\nCodec ID/Info                  : Advanced Video Coding\nDuration                       : 1h 33mn\nBit rate mode                  : Variable\nBit rate                       : 464 Kbps\nWidth                          : 720 pixels\nHeight                         : 432 pixels\nDisplay aspect ratio           : 2.40:1\nFrame rate mode                : Constant\nFrame rate                     : 24.000 fps\nColor space                    : YUV\nChroma subsampling             : 4:2:0\nBit depth                      : 8 bits\nScan type                      : Progressive\nBits/(Pixel*Frame)             : 0.062\nStream size                    : 312 MiB (74%)\nWriting library                : x264 core 130 r2273 b3065e6\nEncoding settings              : deleted\nEncoded date                   : UTC 2013-09-14 21:19:24\nTagged date                    : UTC 2013-09-14 22:38:10\nColor primaries                : BT.601 PAL\nTransfer characteristics       : BT.709\nMatrix coefficients            : BT.601\n\nAudio:\n\nID                             : 2\nFormat                         : AAC\nFormat/Info                    : Advanced Audio Codec\nFormat profile                 : LC\nCodec ID                       : 40\nDuration                       : 1h 33mn\nBit rate mode                  : Variable\nBit rate                       : 160 Kbps\nMaximum bit rate               : 259 Kbps\nChannel(s)                     : 2 channels\nChannel positions              : Front: L R\nSampling rate                  : 48.0 KHz\nCompression mode               : Lossy\nDelay relative to video        : 83ms\nStream size                    : 107 MiB (25%)\nLanguage                       : English\nEncoded date                   : UTC 2013-09-14 21:19:24\nTagged date                    : UTC 2013-09-14 22:38:09\n\nText #1:\n\nID                             : 3\nFormat                         : mp4s\nCodec ID                       : E0\nDuration                       : 1h 33mn\nBit rate mode                  : Variable\nBit rate                       : 2 133 bps\nMaximum bit rate               : 4 270 Mbps\nDelay relative to video        : 83ms\nStream size                    : 1.43 MiB (0%)\nLanguage                       : English\nEncoded date                   : UTC 2013-09-14 21:19:24\nTagged date                    : UTC 2013-09-14 22:38:09\n\nText #2\nID                             : 4\nFormat                         : Apple text\nCodec ID                       : text\nDuration                       : 1h 33mn\nBit rate mode                  : Variable\nBit rate                       : 0 bps\nStream size                    : 279 Bytes (0%)\nEncoded date                   : UTC 2013-09-14 21:19:24\nTagged date                    : UTC 2013-09-14 22:38:10\n\n","torrent":{"xt":"urn:btih:9afdb57a4b4b8b2e58618dceaceed24e40be6872","amp;dn":"The+Bravados++%28Western+1958%29++Gregory+Peck%2C+Joan+Collins+%26amp%3B+S","amp;tr":["udp%3A%2F%2Ftracker.openbittorrent.com%3A80","udp%3A%2F%2Fopen.demonii.com%3A1337","udp%3A%2F%2Ftracker.coppersurfer.tk%3A6969","udp%3A%2F%2Fexodus.desync.com%3A6969"],"infoHash":"9afdb57a4b4b8b2e58618dceaceed24e40be6872","infoHashBuffer":{"type":"Buffer","data":[154,253,181,122,75,75,139,46,88,97,141,206,172,238,210,78,64,190,104,114]},"announce":[],"urlList":[]}}